<svg width="155" height="66" viewBox="0 0 155 66" fill="none" xmlns="http://www.w3.org/2000/svg">
<path d="M3.744 37.972H7.236V60.652H20.448V64H3.744V37.972ZM23.5465 64L34.9225 36.892H35.1385L46.4785 64H42.4825L33.9865 42.364L36.4705 40.744L26.9665 64H23.5465ZM30.2065 54.136H39.8905L41.0425 57.16H29.1985L30.2065 54.136ZM47.4337 37.972H64.7137V41.32H57.7297V64H54.2377V41.32H47.4337V37.972ZM70.2596 37.972H73.7516V64H70.2596V37.972ZM81.2284 37.972H96.6724V41.32H84.7204V49.636H95.1964V52.948H84.7204V64H81.2284V37.972Z" fill="white"/>
<path d="M3.744 1.972H19.188V5.32H7.236V13.636H17.712V16.948H7.236V28H3.744V1.972ZM19.9606 28L31.3366 0.891999H31.5526L42.8926 28H38.8966L30.4006 6.364L32.8846 4.744L23.3806 28H19.9606ZM26.6206 18.136H36.3046L37.4566 21.16H25.6126L26.6206 18.136ZM54.7068 1.972C56.0268 1.972 57.2388 2.152 58.3428 2.512C59.4708 2.848 60.4428 3.364 61.2588 4.06C62.0988 4.732 62.7468 5.572 63.2028 6.58C63.6828 7.564 63.9228 8.716 63.9228 10.036C63.9228 11.068 63.7668 12.076 63.4548 13.06C63.1668 14.044 62.6748 14.944 61.9788 15.76C61.2828 16.552 60.3708 17.2 59.2428 17.704C58.1388 18.184 56.7708 18.424 55.1388 18.424H51.2868V28H47.7948V1.972H54.7068ZM55.0668 15.076C56.0988 15.076 56.9508 14.92 57.6228 14.608C58.3188 14.296 58.8588 13.9 59.2428 13.42C59.6268 12.916 59.9028 12.376 60.0708 11.8C60.2388 11.224 60.3228 10.684 60.3228 10.18C60.3228 9.652 60.2268 9.112 60.0348 8.56C59.8668 7.984 59.5788 7.456 59.1708 6.976C58.7868 6.496 58.2708 6.1 57.6228 5.788C56.9988 5.476 56.2308 5.32 55.3188 5.32H51.2868V15.076H55.0668ZM59.3508 17.056L66.1548 28H62.1228L55.2108 17.164L59.3508 17.056ZM92.1173 1.972V28H88.6613V16.588H75.0173V28H71.5253V1.972H75.0173V13.276H88.6613V1.972H92.1173ZM97.0231 28L108.399 0.891999H108.615L119.955 28H115.959L107.463 6.364L109.947 4.744L100.443 28H97.0231ZM103.683 18.136H113.367L114.519 21.16H102.675L103.683 18.136ZM147.393 28.828L127.269 8.416L128.277 8.668L128.349 28H124.857V1.18H125.037L144.945 21.664L144.117 21.484L144.045 1.972H147.501V28.828H147.393Z" fill="white"/>
</svg>
